<?xml version="1.0" encoding="UTF-8"?>
<svg width="38px" height="38px" viewBox="0 0 38 38" version="1.1" xmlns="http://www.w3.org/2000/svg" xmlns:xlink="http://www.w3.org/1999/xlink">
    <title>instagram</title>
    <g id="Symbols" stroke="none" stroke-width="1" fill="none" fill-rule="evenodd">
        <g id="Footer" transform="translate(-34.000000, -60.000000)" fill="#FFFFFF" fill-rule="nonzero">
            <g id="Group-4" transform="translate(34.000000, 59.000000)">
                <g id="instagram" transform="translate(0.000000, 1.000000)">
                    <path d="M19.0042387,9.25727993 C13.6126046,9.25727993 9.26369214,13.6071628 9.26369214,19 C9.26369214,24.3928372 13.6126046,28.7427201 19.0042387,28.7427201 C24.3958728,28.7427201 28.7447853,24.3928372 28.7447853,19 C28.7447853,13.6071628 24.3958728,9.25727993 19.0042387,9.25727993 Z M19.0042387,25.3340399 C15.5200223,25.3340399 12.6716118,22.4934732 12.6716118,19 C12.6716118,15.5065268 15.5115449,12.6659601 19.0042387,12.6659601 C22.4969325,12.6659601 25.3368656,15.5065268 25.3368656,19 C25.3368656,22.4934732 22.4884551,25.3340399 19.0042387,25.3340399 L19.0042387,25.3340399 Z M31.4151701,8.85875265 C31.4151701,10.1221689 30.3978806,11.1312061 29.1432236,11.1312061 C27.8800892,11.1312061 26.8712772,10.1136896 26.8712772,8.85875265 C26.8712772,7.60381569 27.8885666,6.58629923 29.1432236,6.58629923 C30.3978806,6.58629923 31.4151701,7.60381569 31.4151701,8.85875265 Z M37.8664808,11.1651233 C37.7223648,8.12105322 37.027217,5.42463461 34.7976576,3.20305701 C32.5765756,0.981479415 29.8807585,0.286176503 26.8373675,0.133549035 C23.700725,-0.044516345 14.299275,-0.044516345 11.1626325,0.133549035 C8.12771891,0.2776972 5.43190184,0.973000112 3.20234244,3.19457771 C0.972783045,5.41615531 0.28611266,8.11257391 0.133519241,11.156644 C-0.0445064138,14.2939864 -0.0445064138,23.6975343 0.133519241,26.8348767 C0.277635248,29.8789468 0.972783045,32.5753654 3.20234244,34.796943 C5.43190184,37.0185206 8.11924149,37.7138235 11.1626325,37.866451 C14.299275,38.0445163 23.700725,38.0445163 26.8373675,37.866451 C29.8807585,37.7223028 32.5765756,37.0269999 34.7976576,34.796943 C37.0187395,32.5753654 37.7138873,29.8789468 37.8664808,26.8348767 C38.0445064,23.6975343 38.0445064,14.3024657 37.8664808,11.1651233 Z M33.8142777,30.2011603 C33.1530396,31.8631039 31.8729504,33.1434787 30.2029002,33.8133437 C27.7020636,34.8054223 21.7678751,34.5764811 19.0042387,34.5764811 C16.2406023,34.5764811 10.2979364,34.796943 7.80557724,33.8133437 C6.14400446,33.151958 4.86391523,31.8715832 4.19419967,30.2011603 C3.20234244,27.6997657 3.43123257,21.764253 3.43123257,19 C3.43123257,16.235747 3.21081985,10.291755 4.19419967,7.79883967 C4.85543781,6.13689613 6.13552705,4.85652125 7.80557724,4.18665625 C10.3064138,3.19457771 16.2406023,3.42351891 19.0042387,3.42351891 C21.7678751,3.42351891 27.710541,3.20305701 30.2029002,4.18665625 C31.864473,4.84804195 33.1445622,6.12841682 33.8142777,7.79883967 C34.806135,10.3002343 34.5772448,16.235747 34.5772448,19 C34.5772448,21.764253 34.806135,27.708245 33.8142777,30.2011603 Z" id="Shape"></path>
                </g>
            </g>
        </g>
    </g>
</svg>