<?xml version="1.0" encoding="UTF-8"?>
<svg width="38px" height="38px" viewBox="0 0 38 38" version="1.1" xmlns="http://www.w3.org/2000/svg" xmlns:xlink="http://www.w3.org/1999/xlink">
    <title>linkedin</title>
    <g id="Symbols" stroke="none" stroke-width="1" fill="none" fill-rule="evenodd">
        <g id="Footer" transform="translate(-88.000000, -60.000000)" fill="#FFFFFF" fill-rule="nonzero">
            <g id="Group-4" transform="translate(34.000000, 59.000000)">
                <g id="linkedin" transform="translate(54.000000, 1.000000)">
                    <path d="M35.2857143,0 L2.70580357,0 C1.21294643,0 0,1.22991071 0,2.73973214 L0,35.2602679 C0,36.7700893 1.21294643,38 2.70580357,38 L35.2857143,38 C36.7785714,38 38,36.7700893 38,35.2602679 L38,2.73973214 C38,1.22991071 36.7785714,0 35.2857143,0 Z M11.4848214,32.5714286 L5.85267857,32.5714286 L5.85267857,14.4366071 L11.4933036,14.4366071 L11.4933036,32.5714286 L11.4848214,32.5714286 Z M8.66875,11.9598214 C6.86205357,11.9598214 5.403125,10.4924107 5.403125,8.69419643 C5.403125,6.89598214 6.86205357,5.42857143 8.66875,5.42857143 C10.4669643,5.42857143 11.934375,6.89598214 11.934375,8.69419643 C11.934375,10.5008929 10.4754464,11.9598214 8.66875,11.9598214 L8.66875,11.9598214 Z M32.596875,32.5714286 L26.9647321,32.5714286 L26.9647321,23.75 C26.9647321,21.6464286 26.9223214,18.940625 24.0383929,18.940625 C21.1035714,18.940625 20.6540179,21.2308036 20.6540179,23.5973214 L20.6540179,32.5714286 L15.021875,32.5714286 L15.021875,14.4366071 L20.425,14.4366071 L20.425,16.9133929 L20.5013393,16.9133929 C21.25625,15.4883929 23.096875,13.9870536 25.8366071,13.9870536 C31.5366071,13.9870536 32.596875,17.7446429 32.596875,22.6303571 L32.596875,32.5714286 L32.596875,32.5714286 Z" id="Shape"></path>
                </g>
            </g>
        </g>
    </g>
</svg>