<?xml version="1.0" encoding="UTF-8"?>
<svg width="38px" height="38px" viewBox="0 0 38 38" version="1.1" xmlns="http://www.w3.org/2000/svg" xmlns:xlink="http://www.w3.org/1999/xlink">
    <title>square-facebook</title>
    <g id="Symbols" stroke="none" stroke-width="1" fill="none" fill-rule="evenodd">
        <g id="Footer" transform="translate(-142.000000, -60.000000)" fill="#FFFFFF" fill-rule="nonzero">
            <g id="Group-4" transform="translate(34.000000, 59.000000)">
                <g id="square-facebook" transform="translate(108.000000, 1.000000)">
                    <path d="M33.9285714,0 L4.07142857,0 C1.82284066,0 0,1.82284066 0,4.07142857 L0,33.9285714 C0,36.1771593 1.82284066,38 4.07142857,38 L15.7131696,38 L15.7131696,25.0808482 L10.3694196,25.0808482 L10.3694196,19 L15.7131696,19 L15.7131696,14.3653571 C15.7131696,9.09370536 18.8515625,6.18178571 23.6583929,6.18178571 C25.9604464,6.18178571 28.3676786,6.59232143 28.3676786,6.59232143 L28.3676786,11.7664286 L25.7153125,11.7664286 C23.1019643,11.7664286 22.2868304,13.3882143 22.2868304,15.0515625 L22.2868304,19 L28.1208482,19 L27.1878125,25.0808482 L22.2868304,25.0808482 L22.2868304,38 L33.9285714,38 C36.1771593,38 38,36.1771593 38,33.9285714 L38,4.07142857 C38,1.82284066 36.1771593,0 33.9285714,0 L33.9285714,0 Z" id="Path"></path>
                </g>
            </g>
        </g>
    </g>
</svg>